<?xml version="1.0" standalone="no"?>
<!DOCTYPE svg PUBLIC "-//W3C//DTD SVG 20010904//EN"
 "http://www.w3.org/TR/2001/REC-SVG-20010904/DTD/svg10.dtd">
<svg version="1.0" xmlns="http://www.w3.org/2000/svg"
 width="297.000000pt" height="297.000000pt" viewBox="0 0 297.000000 297.000000"
 preserveAspectRatio="xMidYMid meet">
<metadata>
Created by potrace 1.11, written by Peter Selinger 2001-2013
</metadata>
<g transform="translate(0.000000,297.000000) scale(0.100000,-0.100000)"
fill="#000000" stroke="none">
<path d="M1135 2897 c-11 -6 -25 -17 -31 -25 -5 -7 -32 -18 -59 -23 -27 -5
-58 -18 -70 -29 -12 -11 -30 -20 -41 -20 -21 0 -60 -24 -84 -51 -24 -27 -45
-59 -46 -69 -1 -6 -2 -16 -3 -22 -1 -7 -15 -28 -32 -46 -31 -33 -55 -94 -44
-111 3 -5 -8 -22 -25 -38 -16 -15 -30 -33 -30 -39 0 -6 -6 -17 -14 -23 -9 -8
-12 -21 -9 -34 9 -31 9 -95 0 -142 -5 -23 -3 -60 4 -87 8 -35 8 -61 0 -95 -11
-50 -16 -76 -27 -153 -5 -37 -11 -207 -14 -367 0 -35 -10 -41 -32 -19 -42 42
-91 17 -112 -56 -30 -105 14 -420 67 -476 15 -16 30 -22 47 -20 21 3 26 0 28
-20 3 -36 58 -194 88 -254 73 -144 221 -325 345 -419 17 -13 37 -30 46 -38 23
-22 83 -61 93 -61 6 0 10 -4 10 -8 0 -14 115 -61 187 -76 93 -19 223 -13 303
14 80 26 200 91 300 161 70 49 270 240 270 258 0 4 11 21 25 37 14 16 25 35
25 42 0 6 5 12 11 12 5 0 7 5 4 10 -3 6 -2 10 2 10 9 0 44 72 78 156 13 34 20
40 38 37 23 -5 67 25 67 46 0 6 5 11 11 11 5 0 8 4 4 9 -3 5 -1 12 5 16 5 3
17 32 27 63 16 56 19 64 27 100 3 9 5 17 6 17 2 0 3 5 18 65 5 19 10 69 10
110 2 60 -2 79 -16 97 -25 29 -41 30 -81 9 l-34 -18 8 29 c4 15 9 37 10 48 5
35 15 128 21 180 2 28 7 73 10 100 12 101 13 122 14 205 1 102 -23 190 -68
246 -27 34 -30 47 -30 99 0 94 -42 168 -138 242 -16 13 -35 23 -41 23 -7 0
-13 3 -13 8 0 4 -14 13 -31 21 -17 7 -70 40 -119 72 -49 33 -93 59 -99 59 -5
0 -11 3 -13 8 -5 13 -112 60 -164 73 -27 6 -58 17 -69 23 -11 5 -22 11 -25 11
-3 0 -18 8 -35 17 -30 16 -95 28 -173 33 -23 2 -49 9 -57 15 -8 7 -15 10 -15
7 0 -4 -17 0 -37 7 -26 8 -49 10 -73 4 -47 -12 -60 -12 -95 3 -16 7 -33 12
-37 11 -5 -1 -8 3 -8 10 0 6 -3 8 -6 5 -4 -3 -14 -2 -23 3 -10 5 -24 4 -36 -3z"/>
</g>
</svg>
